<svg width="46" height="62" viewBox="0 0 46 62" fill="none" xmlns="http://www.w3.org/2000/svg">
<path d="M46 23.3322C46 36.258 30.5587 62 23 62C15.1174 62 0 36.258 0 23.3322C0 10.4064 10.2582 0 23 0C35.7418 0 46 10.4064 46 23.3322Z" fill="#0D070A"/>
<circle cx="22.5" cy="24.5" r="14.5" fill="#0D070A"/>
<circle cx="22.5" cy="24.5" r="19.5" fill="white"/>
<path d="M3 24.5173C3 13.7477 11.7304 5 22.5 5V5C33.2696 5 42 13.7132 42 24.4827V24.4827C42 35.2523 33.2868 44 22.5172 44V44C11.7477 44 3 35.2868 3 24.5173V24.5173ZM38.0333 36.1562C38.068 36.1368 38.1035 36.1061 38.0809 36.0734V36.0734C38.0652 36.0505 38.0291 36.0342 38.0013 36.0343C37.9072 36.0347 37.8323 36.0377 37.7408 36.0613C37.6979 36.0724 37.6548 36.0834 37.6109 36.0898C37.3167 36.1325 37.0568 36.1724 36.7571 36.1724C34.1816 36.2645 31.8821 35.5277 29.8125 34.0083C28.1108 32.7651 26.7771 31.1535 25.4894 29.4959C22.8219 25.9965 20.2005 22.497 17.533 19.0437C17.0385 18.4135 16.5439 17.7833 16.0063 17.1531C15.9829 17.1256 15.9531 17.099 15.9215 17.1165V17.1165C15.8928 17.1324 15.8774 17.1743 15.8774 17.207C15.8774 17.3281 15.8774 17.4492 15.8774 17.5702C15.8774 21.5761 15.8774 25.5821 15.8774 29.588C15.8774 29.7589 15.8647 29.9298 15.8464 30.1031C15.7946 30.5937 16.1646 31.0153 16.6579 31.0153C16.6695 31.0153 16.6811 31.0153 16.6927 31.0153C17.1848 31.0153 17.487 30.5865 17.487 30.0944V30.0944C17.487 28.3447 17.487 26.549 17.487 24.7993V24.7993C17.487 24.6488 17.6685 24.6068 17.7612 24.7253C18.132 25.1997 18.4764 25.6211 18.8208 26.0425C20.4304 28.1606 21.9941 30.3247 23.8337 32.3046C25.8573 34.5148 28.2488 36.1263 31.2382 36.7249C33.4421 37.1752 35.5581 37.053 37.7151 36.4014C37.8067 36.3737 37.8709 36.295 37.9377 36.2265C37.9665 36.1969 37.9992 36.1751 38.0333 36.1562ZM6.89811 12.7148C6.87758 12.7289 6.86162 12.7547 6.8782 12.7733V12.7733C6.90239 12.8004 6.93862 12.8276 6.97493 12.8276C6.97992 12.8276 6.98559 12.8276 6.99242 12.8276C6.99823 12.8276 7.00407 12.827 7.00975 12.8258C8.52441 12.5058 9.99334 12.6442 11.4623 13.0579C13.6698 13.6104 15.5094 14.8996 17.0271 16.5573C18.3149 17.9386 19.4646 19.4581 20.6144 20.9315C23.3278 24.3849 25.9953 27.9303 28.6627 31.3837C28.675 31.4021 28.6872 31.4196 28.6995 31.4367C28.7859 31.5561 28.9847 31.4851 28.9847 31.3377V31.3377C28.9847 27.3318 28.9847 23.2798 28.9847 19.2739C28.9847 19.1333 28.9932 18.997 29.0065 18.8624C29.0552 18.3662 28.6904 17.9386 28.1918 17.9386V17.9386C27.685 17.9386 27.337 18.3777 27.3696 18.8835C27.3731 18.9369 27.375 18.9903 27.375 19.0437C27.375 20.7473 27.375 22.405 27.375 24.1086V24.1086C27.375 24.2413 27.1854 24.3151 27.0951 24.2179C27.0628 24.1831 27.0331 24.1477 27.0071 24.1086C26.3632 23.2798 25.6733 22.451 25.0295 21.5761C23.3738 19.366 21.7641 17.1558 19.6946 15.3601C16.0427 12.1152 11.8018 11.2746 7.15176 12.613C7.08755 12.6315 7.00528 12.6266 6.95447 12.67C6.9379 12.6841 6.9194 12.7002 6.89811 12.7148Z" fill="#0D070A"/>
</svg>
