<svg width="33" height="32" viewBox="0 0 33 32" fill="none" xmlns="http://www.w3.org/2000/svg">
<path fill-rule="evenodd" clip-rule="evenodd" d="M16.7387 32C25.5623 32 32.7152 24.8366 32.7152 16C32.7152 7.16344 25.5623 0 16.7387 0C7.91513 0 0.762207 7.16344 0.762207 16C0.762207 24.8366 7.91513 32 16.7387 32ZM14.0751 13.1124H10.7031V17.3944H14.1601V27.7896H18.5239V17.3662C18.7999 17.3662 19.0635 17.3712 19.3184 17.3759C19.9273 17.3872 20.4865 17.3977 21.0458 17.3381C21.3858 17.2817 21.8958 16.9719 21.9525 16.7183C22.0983 15.9938 22.1737 15.2576 22.2542 14.4724C22.2989 14.0363 22.3452 13.5851 22.4059 13.1124H18.3822C18.4352 12.6378 18.4441 12.1467 18.4528 11.6692C18.4719 10.616 18.4899 9.6284 18.9772 9.02756C19.4487 8.46123 20.4239 8.30102 21.4404 8.13403C21.8903 8.06013 22.3483 7.98489 22.7743 7.87254V4.49198C22.4583 4.46871 22.1439 4.4401 21.8315 4.41167C19.8743 4.23355 17.9919 4.06225 16.257 5.25261C14.116 6.72131 14.1265 8.83333 14.1373 11.0054C14.1408 11.708 14.1444 12.4169 14.0751 13.1124Z" fill="white"/>
</svg>
