<svg width="33" height="32" viewBox="0 0 33 32" fill="none" xmlns="http://www.w3.org/2000/svg">
<path fill-rule="evenodd" clip-rule="evenodd" d="M16.5029 32C25.3265 32 32.4794 24.8366 32.4794 16C32.4794 7.16344 25.3265 0 16.5029 0C7.67929 0 0.526367 7.16344 0.526367 16C0.526367 24.8366 7.67929 32 16.5029 32ZM6.21915 14.8838C6.22594 15.3744 6.23273 15.865 6.23273 16.3555C6.2424 17.0135 6.23346 17.6752 6.22453 18.3363V18.3371V18.3373C6.21025 19.3947 6.19598 20.4507 6.25787 21.4876C6.43393 24.4813 8.26987 26.67 11.2627 26.8461C15.0352 27.0977 18.858 27.0473 22.6557 26.8461C25.2209 26.6951 27.2329 24.6322 27.3587 22.0662C27.5347 18.4184 27.585 14.7203 27.3838 11.0473C27.2078 7.97816 25.07 5.94042 21.9766 5.78947C18.6065 5.63853 15.2113 5.63853 11.816 5.78947C8.54652 5.94042 6.43393 8.17941 6.25787 11.4499C6.18747 12.5943 6.20331 13.7388 6.21915 14.8832V14.8838ZM15.5059 7.5818C15.9945 7.56435 16.4831 7.54689 16.9718 7.52533C17.3762 7.544 17.7805 7.56113 18.1846 7.57824L18.1849 7.57826C19.414 7.63033 20.6395 7.68224 21.8508 7.7769C23.9634 7.92784 25.2712 9.00961 25.3718 11.148C25.5479 14.6951 25.4976 18.2675 25.3718 21.8146C25.2964 23.5505 24.1395 24.8083 22.4041 24.8838C18.7071 25.0348 14.9849 25.0599 11.2627 24.8838C9.50223 24.7832 8.37047 23.5002 8.29503 21.6889C8.16928 18.2171 8.16928 14.7455 8.26987 11.2738C8.34532 9.13539 9.67827 7.953 11.8412 7.7769C13.0627 7.66908 14.2843 7.62544 15.5059 7.5818ZM11.3123 16.3304C11.262 19.3493 13.7015 21.8398 16.7447 21.8902C19.813 21.9405 22.3028 19.5505 22.3783 16.5317C22.4286 13.4373 19.9639 10.8964 16.8956 10.8713C13.9027 10.8461 11.3626 13.3367 11.3123 16.3304ZM16.795 12.8084C18.7567 12.7832 20.3663 14.3681 20.3914 16.3556C20.4166 18.3933 18.8573 19.953 16.8453 19.953C14.8836 19.9782 13.274 18.343 13.2991 16.3556C13.3243 14.4436 14.8836 12.8335 16.795 12.8084ZM24.4403 10.6196C24.1392 10.8411 23.888 11.0595 23.6669 11.2516C23.2602 11.6052 22.9554 11.8701 22.6295 11.9027C21.8499 12.0033 21.1708 11.4247 21.3972 10.5945C21.5229 10.0913 22.1768 9.43725 22.6295 9.38693C22.9216 9.3707 23.2346 9.63717 23.6495 9.99045C23.8778 10.1848 24.1369 10.4054 24.4403 10.6196Z" fill="white"/>
</svg>
