<svg width="33" height="32" viewBox="0 0 33 32" fill="none" xmlns="http://www.w3.org/2000/svg">
<path fill-rule="evenodd" clip-rule="evenodd" d="M16.975 32C25.7986 32 32.9515 24.8366 32.9515 16C32.9515 7.16344 25.7986 0 16.975 0C8.15146 0 0.998535 7.16344 0.998535 16C0.998535 24.8366 8.15146 32 16.975 32ZM7.42017 13.8154C7.52521 15.7133 8.57563 16.844 10.4664 17.7122C10.2576 17.7299 10.0794 17.7442 9.91905 17.757C9.53078 17.788 9.2476 17.8107 8.89075 17.8535C9.58403 19.4486 10.7815 20.3168 12.5672 20.5995C10.8866 21.9523 8.95378 22.1945 7 22.4166C10.7605 24.4155 14.6261 24.678 18.4286 22.8003C22.4832 20.8014 24.563 17.4295 24.8992 13.0885C24.9622 12.3819 25.0672 11.8367 25.6975 11.3723C26.01 11.1578 26.2593 10.8621 26.5649 10.4998C26.6906 10.3507 26.8259 10.1903 26.979 10.0196C26.2026 10.2011 25.6987 10.3221 25.1113 10.4633L25.1092 10.4638C25.2471 10.2678 25.3799 10.0801 25.5085 9.89829C25.8306 9.44304 26.1265 9.02463 26.4118 8.60622C26.1176 8.52545 25.9706 8.56583 25.8235 8.6466C24.7731 9.21194 23.8487 9.27251 22.6723 8.56583C20.0672 6.99096 16.6849 8.90907 16.5378 11.9175C16.524 12.1435 16.5284 12.3695 16.533 12.6071C16.5354 12.7303 16.5378 12.8566 16.5378 12.9876C13.0084 12.7049 10.2563 11.2916 7.9874 8.76774C6.93697 10.807 7.37815 12.503 9.10084 14.1587C8.68794 14.077 8.35929 14.0088 8.05807 13.9462C7.83819 13.9006 7.63292 13.858 7.42017 13.8154Z" fill="white"/>
</svg>
