<svg width="206" height="44" viewBox="0 0 206 44" fill="none" xmlns="http://www.w3.org/2000/svg">
<path d="M116.698 22.625C118.383 26.375 120.192 30.0625 122.252 33.5625C120.005 33.5625 117.634 33.5625 115.512 33.5625C115.325 32.875 115.2 32.1875 114.888 31.5625C113.827 29.1875 112.704 26.875 111.643 24.5625C111.456 24.1875 111.206 24.0625 110.832 24.0625C110.02 24.125 109.272 24.0625 108.398 24.0625C108.398 24.3125 108.398 24.5625 108.398 24.75C108.398 26.875 108.398 29 108.398 31.125C108.398 31.9375 108.585 32.75 108.647 33.625C106.526 33.625 104.279 33.625 101.908 33.625C102.532 32.625 102.345 31.5 102.345 30.5C102.345 24.6875 102.345 18.875 102.345 13.0625C102.345 12.25 102.22 11.4375 102.157 10.5625C102.095 10.5625 102.22 10.5625 102.282 10.5625C106.276 10.5625 110.27 10.5 114.264 10.625C116.448 10.6875 118.383 11.5625 119.756 13.375C121.441 15.6875 121.066 20.5625 117.509 22.3125C117.259 22.3125 117.01 22.4375 116.698 22.625ZM108.46 13.1875C108.46 15.9375 108.46 18.5 108.46 21.0625C109.396 21.0625 110.332 21.125 111.269 21.0625C113.89 20.8125 115.138 19.375 114.95 16.8125C114.826 14.9375 113.827 13.6875 112.017 13.375C110.832 13.1875 109.646 13.25 108.46 13.1875Z" fill="#0D070A"/>
<path d="M182.286 21.4375C182.536 20.25 182.661 18.625 183.16 17.125C184.096 14.125 186.093 12.125 189.026 11C192.583 9.68748 196.14 9.68748 199.635 11.125C203.192 12.5625 205.127 15.4375 205.751 19.1875C206.125 21.375 206.063 23.5625 205.563 25.75C204.627 29.625 202.193 32.125 198.449 33.3125C194.642 34.5 190.898 34.1875 187.466 32.1875C184.658 30.5625 183.222 27.9375 182.661 24.75C182.473 23.75 182.473 22.8125 182.286 21.4375ZM199.572 21.6875C199.572 21.4375 199.572 21.1875 199.572 20.875C199.51 19.0625 199.26 17.25 198.449 15.5625C196.951 12.5 193.519 12.4375 191.647 13.5625C190.399 14.3125 189.775 15.5625 189.4 16.875C188.714 19.3125 188.651 21.75 188.963 24.25C189.151 25.75 189.463 27.125 190.274 28.4375C191.397 30.25 193.394 31.0625 195.454 30.5C197.201 30 198.137 28.75 198.761 27.125C199.448 25.4375 199.572 23.5625 199.572 21.6875Z" fill="#0D070A"/>
<path d="M55.0415 42.5625C54.8543 42.625 54.7295 42.8125 54.5423 42.8125C51.6717 43.75 48.7386 44.125 45.6807 43.875C41.9988 43.5625 38.6289 42.5 35.5087 40.5625C33.1373 39.125 31.1403 37.25 29.393 35.1875C26.4599 31.6875 23.6517 28.0625 20.8434 24.4375C20.2194 23.625 19.5953 22.8125 18.784 22.0625C18.784 22.25 18.784 22.5 18.784 22.6875C18.784 25.5 18.784 28.375 18.784 31.1875C18.784 31.9375 18.9089 32.6875 19.0337 33.5C17.9728 33.5 16.7247 33.5 15.4766 33.5C16.163 32.4375 15.9134 31.3125 15.9134 30.1875C15.9134 23.375 15.9134 16.5 15.9134 9.6875C15.9134 9.5 15.9134 9.25 15.9134 8.875C16.163 9.1875 16.3502 9.3125 16.475 9.5C20.9058 15.3125 25.399 21.0625 29.8298 26.875C32.014 29.6875 34.1358 32.5625 36.5072 35.25C39.4402 38.5625 42.9349 41.0625 47.3657 42.125C49.7995 42.6875 52.2333 42.875 54.6671 42.375C54.7295 42.375 54.7919 42.375 54.9167 42.375C54.9791 42.4375 55.0415 42.5 55.0415 42.5625Z" fill="#0D070A"/>
<path d="M35.9455 10.4378C37.0688 10.4378 38.3169 10.4378 39.565 10.4378C38.8785 11.5003 39.1281 12.6878 39.1281 13.8128C39.1281 20.6253 39.1281 27.4378 39.1281 34.2503C39.1281 34.4378 39.1281 34.6878 39.1281 34.8753C39.0657 34.8753 39.0657 34.9378 39.0033 34.9378C38.5041 34.3753 38.0048 33.8128 37.568 33.1878C32.95 27.1878 28.3944 21.1253 23.7764 15.1253C21.7171 12.4378 19.7201 9.68776 17.2239 7.31276C14.5404 4.75026 11.545 2.75026 7.86307 1.81276C5.49167 1.31276 2.99546 1.12526 0.561648 1.56276C0.436837 1.56276 0.249621 1.56276 0 1.43776C0.124811 1.31276 0.312027 1.18776 0.436837 1.12526C3.4947 0.125262 6.61496 -0.187238 9.79764 0.125262C13.6668 0.500262 17.2239 1.81276 20.4689 4.00026C22.9652 5.75026 25.0869 7.93776 26.9591 10.3128C29.5801 13.5628 32.1387 16.9378 34.6974 20.2503C35.1342 20.8128 35.6334 21.3753 36.1327 22.0628C36.1327 21.8128 36.1951 21.6253 36.1951 21.4378C36.1951 18.3128 36.1951 15.1878 36.1951 12.1253C36.2575 11.5628 36.0079 11.0628 35.9455 10.4378Z" fill="#0D070A"/>
<path d="M82.3751 10.4375C82.3751 10.4375 82.4375 10.4375 82.4999 10.4375C86.3066 10.4375 90.1758 10.375 93.9825 10.4375C97.4772 10.5 99.9734 12.875 100.223 16.3125C100.285 17.4375 100.285 18.625 100.036 19.75C99.4742 22.375 97.6644 23.9375 95.1058 24.4375C93.4208 24.75 91.6111 24.875 89.9262 25.0625C89.5517 25.125 89.1149 25.0625 88.7404 25.0625C88.4284 26.5 88.678 32.375 89.0525 33.5C86.8059 33.5 84.4969 33.5 82.1255 33.5C82.7495 32.625 82.5623 31.6875 82.5623 30.75C82.5623 24.625 82.5623 18.4375 82.5623 12.3125C82.6247 11.75 82.4999 11.125 82.3751 10.4375ZM88.678 13.1875C88.678 16.25 88.678 19.125 88.678 22.125C89.8637 22.0625 91.1119 22.125 92.2352 21.9375C93.7329 21.75 94.7938 20.8125 94.981 19.3125C95.1058 18.25 95.1058 17.125 94.981 16.0625C94.7938 14.5625 93.7953 13.625 92.2976 13.4375C91.1743 13.25 89.9886 13.25 88.678 13.1875Z" fill="#0D070A"/>
<path d="M62.2179 29.75C63.5908 30.1875 64.8389 30.625 66.087 31C67.772 31.4375 69.4569 31.6875 71.1419 31.1875C72.1404 30.9375 72.9516 30.4375 73.6381 29.6875C74.7614 28.4375 74.6366 26.875 73.2013 25.9375C72.2028 25.25 71.0795 24.75 69.9562 24.1875C68.084 23.1875 66.1495 22.25 64.3397 21.1875C60.5954 19 60.845 13.6875 64.6517 11.5C66.2743 10.5625 68.084 10.1875 69.9562 10.125C72.8892 10.0625 75.7599 10.5625 78.6305 11.3125C78.7553 11.375 79.0049 11.5625 79.0049 11.6875C79.0674 12.5625 79.0049 13.4375 79.0049 14.375C78.4433 14.125 77.9441 13.9375 77.4448 13.6875C75.2606 12.8125 73.014 12.375 70.6426 12.9375C69.9562 13.0625 69.2697 13.4375 68.7081 13.875C67.5224 14.8125 67.46 16.3125 68.6457 17.3125C69.4569 18 70.5178 18.5 71.5163 19C73.4509 19.875 75.4478 20.625 77.1952 21.875C78.5057 22.8125 79.629 23.9375 79.8786 25.625C80.3155 28.4375 79.2546 30.625 76.9456 32.25C75.323 33.375 73.5133 33.8125 71.6411 34C68.6457 34.25 65.7126 33.9375 62.9044 32.9375C62.3427 32.75 62.0931 32.5 62.1555 31.875C62.2179 31.125 62.2179 30.4375 62.2179 29.75Z" fill="#0D070A"/>
<path d="M179.478 14.3125C178.916 14.0625 178.479 13.875 177.98 13.6875C175.796 12.8125 173.487 12.375 171.115 12.875C169.93 13.125 168.931 13.6875 168.494 14.875C168.12 15.9375 168.619 17.125 169.805 17.75C171.24 18.5 172.8 19.125 174.236 19.875C175.546 20.5625 176.919 21.3125 178.167 22.125C181.475 24.25 180.975 28.875 178.729 31.0625C177.169 32.5625 175.297 33.5 173.175 33.75C169.867 34.125 166.56 33.9375 163.377 32.8125C162.815 32.625 162.566 32.375 162.628 31.75C162.691 31.125 162.628 30.4375 162.691 29.8125C162.691 29.75 162.691 29.75 162.753 29.6875C163.814 30.0625 164.812 30.4375 165.873 30.75C167.745 31.3125 169.68 31.625 171.615 31.125C172.675 30.8125 173.612 30.3125 174.236 29.4375C175.109 28.1875 174.984 26.75 173.736 25.9375C172.363 25.0625 170.803 24.4375 169.368 23.625C167.808 22.75 166.123 21.9375 164.625 20.9375C161.38 18.8125 161.255 14.3125 164.376 11.9375C166.185 10.5625 168.307 10.125 170.491 10.0625C173.424 10 176.295 10.5 179.103 11.25C179.228 11.3125 179.478 11.5 179.478 11.625C179.54 12.5 179.478 13.375 179.478 14.3125Z" fill="#0D070A"/>
<path d="M159.82 14.3125C159.383 14.125 159.009 14 158.634 13.8125C156.575 12.875 154.391 12.5 152.144 12.75C151.145 12.875 150.209 13.1875 149.398 13.9375C148.4 14.9375 148.275 16.3125 149.336 17.1875C150.209 17.9375 151.27 18.375 152.269 18.9375C154.141 19.9375 156.076 20.75 157.885 21.8125C159.321 22.625 160.444 23.875 160.631 25.625C161.006 28.375 159.945 30.5625 157.698 32.125C156.076 33.3125 154.266 33.75 152.331 33.875C149.336 34.125 146.403 33.8125 143.594 32.8125C143.095 32.625 142.846 32.375 142.908 31.75C142.97 31.0625 142.908 30.375 142.908 29.625C144.094 30 145.155 30.4375 146.215 30.75C148.088 31.3125 149.96 31.625 151.894 31.0625C152.893 30.75 153.829 30.25 154.515 29.375C155.451 28.0625 155.327 26.625 154.016 25.8125C152.643 24.9375 151.145 24.3125 149.71 23.5625C148.212 22.75 146.652 21.9375 145.155 21.0625C141.348 18.8125 141.66 13.4375 145.591 11.3125C147.713 10.125 150.022 9.93749 152.394 10.0625C154.703 10.1875 157.012 10.625 159.321 11.1875C159.757 11.3125 159.882 11.4375 159.882 11.875C159.757 12.6875 159.82 13.4375 159.82 14.3125Z" fill="#0D070A"/>
<path d="M57.8498 20.375C57.8498 21.1875 57.8498 22.0625 57.8498 22.9375C55.2288 22.9375 52.6078 22.9375 49.9867 22.9375C49.9867 25.6875 49.9867 28.375 49.9867 31.1875C53.2942 31.5625 56.5393 31.0625 59.8468 30.9375C59.8468 31.8125 59.8468 32.625 59.8468 33.5C54.4175 33.5 48.9883 33.5 43.4966 33.5C44.183 32 43.871 30.4375 43.871 28.875C43.9334 23.4375 43.871 17.9375 43.871 12.5C43.871 11.8125 43.6838 11.125 43.6214 10.4375C48.9258 10.4375 54.3551 10.4375 59.8468 10.4375C59.8468 11.25 59.8468 12.0625 59.8468 12.9375C59.6596 12.9375 59.4099 12.9375 59.2227 12.9375C56.3521 12.875 53.4814 12.75 50.6108 12.6875C50.0491 12.6875 49.7995 12.8125 49.7995 13.4375C49.8619 15.5 49.7995 17.5625 49.7995 19.625C49.7995 19.8125 49.7995 20.0625 49.7995 20.3125C52.6078 20.375 55.2288 20.375 57.8498 20.375Z" fill="#0D070A"/>
<path d="M124.561 10.4375C129.866 10.4375 135.295 10.4375 140.724 10.4375C140.724 11.25 140.724 12.0625 140.724 13C137.479 12.875 134.172 12.8125 130.864 12.6875C130.864 15.375 130.864 17.875 130.864 20.4375C133.485 20.4375 136.106 20.4375 138.727 20.4375C138.727 21.25 138.727 22.125 138.727 23C136.106 23 133.485 23 130.864 23C130.864 25.75 130.864 28.4375 130.864 31.25C134.109 31.5625 137.417 31.125 140.724 31C140.724 31.875 140.724 32.6875 140.724 33.625C135.295 33.625 129.866 33.625 124.374 33.625C124.998 32.6875 124.811 31.75 124.811 30.8125C124.811 24.75 124.811 18.6875 124.811 12.625C124.748 11.875 124.624 11.1875 124.561 10.4375Z" fill="#0D070A"/>
</svg>
